<?xml version="1.0" encoding="UTF-8" standalone="no"?>
<svg
   xmlns:dc="http://purl.org/dc/elements/1.1/"
   xmlns:cc="http://creativecommons.org/ns#"
   xmlns:rdf="http://www.w3.org/1999/02/22-rdf-syntax-ns#"
   xmlns:svg="http://www.w3.org/2000/svg"
   xmlns="http://www.w3.org/2000/svg"
   xmlns:xlink="http://www.w3.org/1999/xlink"
   xmlns:sodipodi="http://sodipodi.sourceforge.net/DTD/sodipodi-0.dtd"
   xmlns:inkscape="http://www.inkscape.org/namespaces/inkscape"
   inkscape:export-ydpi="96"
   inkscape:export-xdpi="96"
   inkscape:export-filename="/Users/emojifilesystem/Desktop/EAfrica_context.png"
   inkscape:version="1.0 (4035a4f, 2020-05-01)"
   sodipodi:docname="EAfrica_TBbox_nolabel.tiff.svg"
   viewBox="0 0 2240 1920"
   height="1920"
   width="2240"
   id="svg403"
   version="1.1">
  <metadata
     id="metadata409">
    <rdf:RDF>
      <cc:Work
         rdf:about="">
        <dc:format>image/svg+xml</dc:format>
        <dc:type
           rdf:resource="http://purl.org/dc/dcmitype/StillImage" />
        <dc:title></dc:title>
      </cc:Work>
    </rdf:RDF>
  </metadata>
  <defs
     id="defs407" />
  <sodipodi:namedview
     inkscape:current-layer="layer4"
     inkscape:window-maximized="0"
     inkscape:window-y="26"
     inkscape:window-x="2023"
     inkscape:cy="770.85267"
     inkscape:cx="611.45117"
     inkscape:zoom="0.29648258"
     showgrid="false"
     id="namedview405"
     inkscape:window-height="1003"
     inkscape:window-width="1604"
     inkscape:pageshadow="2"
     inkscape:pageopacity="0"
     guidetolerance="10"
     gridtolerance="10"
     objecttolerance="10"
     borderopacity="1"
     bordercolor="#666666"
     pagecolor="#ffffff" />
  <g
     sodipodi:insensitive="true"
     id="g411"
     inkscape:label="Image"
     inkscape:groupmode="layer">
    <image
       sodipodi:absref="/Users/emojifilesystem/RND/Turkana/maps/clean/EAfrica_TBbox_nolabel.tiff"
       xlink:href="EAfrica_TBbox_nolabel.tiff"
       width="2240"
       height="1920"
       preserveAspectRatio="none"
       id="image413" />
  </g>
  <g
     inkscape:label="labels"
     id="layer4"
     inkscape:groupmode="layer">
    <text
       xml:space="preserve"
       style="font-style:normal;font-weight:normal;font-size:48px;line-height:1.25;font-family:Baskerville;display:inline;fill:#000000;fill-opacity:1;stroke:none;-inkscape-font-specification:Baskerville;font-stretch:normal;font-variant:normal;"
       x="320.94766"
       y="238.63223"
       id="text114"><tspan
         sodipodi:role="line"
         id="tspan112"
         x="320.94766"
         y="238.63223"
         style="font-style:normal;font-variant:normal;font-weight:normal;font-stretch:normal;font-family:Baskerville;-inkscape-font-specification:Baskerville;font-size:48px;">Sudan</tspan></text>
    <text
       id="text114-2"
       y="742.85803"
       x="281.08374"
       style="font-style:normal;font-weight:normal;font-size:48px;line-height:1.25;font-family:Baskerville;display:inline;fill:#000000;fill-opacity:1;stroke:none;-inkscape-font-specification:Baskerville;font-stretch:normal;font-variant:normal;"
       xml:space="preserve"><tspan
         style="font-style:normal;font-variant:normal;font-weight:normal;font-stretch:normal;font-family:Baskerville;-inkscape-font-specification:Baskerville;font-size:48px;"
         y="742.85803"
         x="281.08374"
         id="tspan112-0"
         sodipodi:role="line">South Sudan</tspan></text>
    <text
       id="text114-9"
       y="499.91925"
       x="923.69598"
       style="font-style:normal;font-variant:normal;font-weight:normal;font-stretch:normal;font-size:48px;line-height:1.25;font-family:Baskerville;-inkscape-font-specification:Baskerville;display:inline;fill:#000000;fill-opacity:1;stroke:none"
       xml:space="preserve"><tspan
         style="font-style:normal;font-variant:normal;font-weight:normal;font-stretch:normal;font-size:48px;font-family:Baskerville;-inkscape-font-specification:Baskerville"
         y="499.91925"
         x="923.69598"
         id="tspan112-9"
         sodipodi:role="line">Ethiopia</tspan></text>
    <text
       xml:space="preserve"
       style="font-style:normal;font-weight:normal;font-size:32px;line-height:1.25;font-family:sans-serif;fill:#000000;fill-opacity:1;stroke:none"
       x="1040.0854"
       y="602.26526"
       id="text80"><tspan
         sodipodi:role="line"
         id="tspan78"
         x="1040.0854"
         y="602.26526"
         style="font-style:normal;font-variant:normal;font-weight:normal;font-stretch:normal;font-size:32px;font-family:Baskerville;-inkscape-font-specification:Baskerville">Addis Ababa</tspan></text>
    <text
       xml:space="preserve"
       style="font-style:normal;font-variant:normal;font-weight:normal;font-stretch:normal;font-size:48px;line-height:1.25;font-family:Baskerville;-inkscape-font-specification:Baskerville;display:inline;fill:#000000;fill-opacity:1;stroke:none"
       x="864.29053"
       y="90.411125"
       id="text114-9-5"><tspan
         sodipodi:role="line"
         id="tspan112-9-0"
         x="864.29053"
         y="90.411125"
         style="font-style:normal;font-variant:normal;font-weight:normal;font-stretch:normal;font-size:48px;font-family:Baskerville;-inkscape-font-specification:Baskerville">Eritrea</tspan></text>
    <g
       transform="translate(2,-2)"
       style="font-style:normal;font-variant:normal;font-weight:normal;font-stretch:normal;font-size:48px;line-height:1.25;font-family:Baskerville;-inkscape-font-specification:Baskerville;display:inline;fill:#000000;fill-opacity:1;stroke:none"
       id="text114-9-5-8"
       aria-label="Djibouti">
      <path
         id="path2331"
         style="font-style:normal;font-variant:normal;font-weight:normal;font-stretch:normal;font-size:48px;font-family:Baskerville;-inkscape-font-specification:Baskerville"
         d="m 1412.715,319.75415 5.2265,-0.25781 q 6.5391,-0.32813 8.8125,-0.32813 7.0782,0 11.0391,2.15625 3.9609,2.15625 5.8828,5.85938 1.9453,3.67969 1.9453,8.50781 0,3.49219 -1.0547,6.39844 -1.0547,2.88281 -2.9062,4.80469 -1.8281,1.89843 -4.2656,2.90625 -2.4141,0.98437 -4.5938,1.24218 -2.1797,0.23438 -6.1406,0.23438 h -14.086 v -1.07813 h 1.3125 q 2.0391,0 2.8125,-0.51562 0.7969,-0.51563 1.0079,-1.59375 0.2343,-1.10156 0.2343,-5.08594 v -15.32812 q 0,-3.79688 -0.2343,-4.89844 -0.211,-1.125 -0.9375,-1.52344 -0.7032,-0.42187 -3.1172,-0.42187 h -0.9375 z m 9.7968,0.65625 v 21.23438 q 0,4.71093 0.1641,6.07031 0.1875,1.35937 1.0547,1.92187 0.8906,0.53907 3.7266,0.53907 4.1484,0 6.8203,-1.125 2.6718,-1.14844 4.4531,-4.47657 1.8047,-3.35156 1.8047,-8.53125 0,-4.03125 -1.0547,-7.19531 -1.0313,-3.16406 -2.9766,-5.13281 -1.9453,-1.99219 -4.3125,-2.69531 -2.3672,-0.72657 -6.0703,-0.72657 -1.7812,0 -3.6094,0.11719 z" />
      <path
         id="path2333"
         style="font-style:normal;font-variant:normal;font-weight:normal;font-stretch:normal;font-size:48px;font-family:Baskerville;-inkscape-font-specification:Baskerville"
         d="m 1451.5275,321.51196 q 0,-1.00781 0.7031,-1.73437 0.7031,-0.72656 1.7344,-0.72656 1.0078,0 1.7109,0.72656 0.7031,0.72656 0.7031,1.73437 0,1.03125 -0.7265,1.75782 -0.7032,0.72656 -1.6875,0.72656 -1.0547,0 -1.7578,-0.75 -0.6797,-0.75 -0.6797,-1.73438 z m 4.6172,9.79688 v 20.625 q 0,3.07031 -0.2579,4.71094 -0.2343,1.64062 -1.2187,3.14062 -0.9844,1.5 -2.7891,2.39063 -1.7812,0.91406 -4.0312,0.91406 -2.1328,0 -3.586,-0.82031 -1.4531,-0.82032 -1.4531,-2.08594 0,-0.75 0.4688,-1.14844 0.4453,-0.39844 1.0078,-0.39844 1.0547,0 1.7344,1.5 0.8203,1.92188 2.5078,1.92188 1.4765,0 2.6015,-0.98438 1.1485,-0.96093 1.4063,-2.50781 0.2578,-1.52344 0.2578,-4.89844 v -14.8125 q 0,-2.83593 -0.2109,-3.72656 -0.211,-0.91406 -0.75,-1.19531 -0.5157,-0.30469 -2.0157,-0.30469 h -0.5859 v -1.07812 q 4.125,-0.42188 6.3984,-1.24219 z" />
      <path
         id="path2335"
         style="font-style:normal;font-variant:normal;font-weight:normal;font-stretch:normal;font-size:48px;font-family:Baskerville;-inkscape-font-specification:Baskerville"
         d="m 1463.2697,321.51196 q 0,-1.00781 0.7031,-1.73437 0.7265,-0.72656 1.7344,-0.72656 1.0078,0 1.7109,0.72656 0.7031,0.72656 0.7031,1.73437 0,1.03125 -0.7031,1.75782 -0.7031,0.72656 -1.7109,0.72656 -1.0079,0 -1.7344,-0.72656 -0.7031,-0.72657 -0.7031,-1.75782 z m 4.5234,9.79688 v 13.38281 q 0,3.07031 0.094,3.86719 0.094,0.79687 0.6797,1.21875 0.586,0.42187 2.086,0.42187 h 0.4922 v 1.07813 h -10.336 v -1.07813 h 0.7969 q 1.6641,0 2.1562,-0.46875 0.5157,-0.49218 0.586,-1.14843 0.094,-0.67969 0.094,-3.89063 v -5.8125 q 0,-3.375 -0.3281,-4.125 -0.3047,-0.75 -0.8437,-0.9375 -0.5157,-0.1875 -1.8282,-0.1875 h -0.6328 v -1.07812 q 4.1719,-0.42188 6.4688,-1.24219 z" />
      <path
         id="path2337"
         style="font-style:normal;font-variant:normal;font-weight:normal;font-stretch:normal;font-size:48px;font-family:Baskerville;-inkscape-font-specification:Baskerville"
         d="m 1476.6759,352.05103 h -0.9141 v -25.6875 q 0,-2.8125 -0.164,-3.63282 -0.1406,-0.82031 -0.7735,-1.21875 -0.6093,-0.39843 -2.1562,-0.39843 v -1.07813 q 1.3828,0 3.3281,-0.32812 1.9453,-0.32813 2.6485,-0.65625 h 0.4921 v 15.1875 q 1.6407,-1.47657 3.3282,-2.20313 1.6875,-0.72656 3.4218,-0.72656 4.1485,0 6.7969,2.88281 2.6485,2.88281 2.6485,7.35938 0,4.5 -2.7188,7.5 -2.7187,3 -7.0547,3 -2.1328,0 -3.75,-0.89063 -1.5937,-0.89062 -2.6719,-2.64844 -1.5234,1.52344 -2.4609,3.53907 z m 2.4609,-16.42969 v 7.52344 q 0,2.90625 0.375,4.19531 0.3985,1.26562 1.875,2.4375 1.4766,1.17187 3.4454,1.17187 3.0234,0 4.8046,-2.48437 1.8047,-2.48438 1.8047,-7.14844 0,-4.28906 -1.6875,-6.51562 -1.664,-2.25 -4.4531,-2.25 -1.5937,0 -3.1406,0.77343 -1.5235,0.75 -3.0235,2.29688 z" />
      <path
         id="path2339"
         style="font-style:normal;font-variant:normal;font-weight:normal;font-stretch:normal;font-size:48px;font-family:Baskerville;-inkscape-font-specification:Baskerville"
         d="m 1498.8712,341.64478 q 0,-4.40625 2.9531,-7.35938 2.9532,-2.97656 7.2657,-2.97656 4.3359,0 7.289,2.97656 2.9532,2.97656 2.9532,7.35938 0,4.85156 -3,7.64062 -3,2.76563 -7.2422,2.76563 -4.2422,0 -7.2422,-2.8125 -2.9766,-2.83594 -2.9766,-7.59375 z m 3.8906,0.11718 q 0,5.10938 1.6641,7.17188 1.6641,2.03906 4.6641,2.03906 3.0703,0 4.6875,-2.03906 1.6406,-2.0625 1.6406,-7.17188 0,-5.0625 -1.6172,-7.21875 -1.6172,-2.15625 -4.7109,-2.15625 -3.0703,0 -4.711,2.15625 -1.6172,2.13282 -1.6172,7.21875 z" />
      <path
         id="path2341"
         style="font-style:normal;font-variant:normal;font-weight:normal;font-stretch:normal;font-size:48px;font-family:Baskerville;-inkscape-font-specification:Baskerville"
         d="m 1541.9493,332.08228 v 12.58593 q 0,3.14063 0.094,3.9375 0.094,0.79688 0.6797,1.19532 0.6094,0.39843 2.1562,0.39843 v 1.07813 q -3.5625,0.0469 -5.2031,0.75 h -0.2812 q -0.75,-1.28906 -0.7969,-4.45313 -1.4297,2.22657 -3.2813,3.35157 -1.8281,1.125 -4.0547,1.125 -1.9218,0 -3.3984,-0.86719 -1.4766,-0.89063 -2.0391,-2.15625 -0.539,-1.26563 -0.539,-3.82031 v -6.53907 q 0,-3.32812 -0.1172,-4.05468 -0.1172,-0.75 -0.75,-1.10157 -0.6094,-0.35156 -2.2734,-0.35156 v -1.07812 h 6.5156 v 13.3125 q 0,1.96875 0.2344,2.85937 0.2343,0.89063 1.1953,1.57031 0.9609,0.65625 2.2265,0.65625 1.8047,0 3.4453,-1.17187 1.6407,-1.19531 2.2266,-2.50781 0.6094,-1.33594 0.6094,-3.79688 v -4.33594 q 0,-3.14062 -0.07,-3.82031 -0.07,-0.67969 -0.6094,-1.17187 -0.5156,-0.51563 -2.1797,-0.51563 h -0.4922 v -1.07812 z" />
      <path
         id="path2343"
         style="font-style:normal;font-variant:normal;font-weight:normal;font-stretch:normal;font-size:48px;font-family:Baskerville;-inkscape-font-specification:Baskerville"
         d="m 1559.2931,333.1604 h -5.7891 v 11.60156 q 0,2.67188 0.2344,3.60938 0.2344,0.91406 0.9844,1.47656 0.7734,0.5625 1.6406,0.5625 1.6875,0 2.9297,-1.92187 l 0.75,0.44531 q -0.7266,1.54687 -2.1563,2.34375 -1.4062,0.77344 -2.8593,0.77344 -1.6875,0 -2.9766,-0.98438 -1.2656,-1.00781 -1.5937,-2.34375 -0.3047,-1.33594 -0.3047,-4.6875 v -10.875 h -2.7891 v -1.07812 q 1.9219,-0.0469 3.4453,-1.61719 1.5235,-1.57031 1.9453,-4.40625 h 0.75 v 6.02344 h 5.7891 z" />
      <path
         id="path2345"
         style="font-style:normal;font-variant:normal;font-weight:normal;font-stretch:normal;font-size:48px;font-family:Baskerville;-inkscape-font-specification:Baskerville"
         d="m 1563.3009,321.51196 q 0,-1.00781 0.7031,-1.73437 0.7266,-0.72656 1.7344,-0.72656 1.0078,0 1.7109,0.72656 0.7032,0.72656 0.7032,1.73437 0,1.03125 -0.7032,1.75782 -0.7031,0.72656 -1.7109,0.72656 -1.0078,0 -1.7344,-0.72656 -0.7031,-0.72657 -0.7031,-1.75782 z m 4.5234,9.79688 v 13.38281 q 0,3.07031 0.094,3.86719 0.094,0.79687 0.6797,1.21875 0.5859,0.42187 2.0859,0.42187 h 0.4922 v 1.07813 H 1560.84 v -1.07813 h 0.7968 q 1.6641,0 2.1563,-0.46875 0.5156,-0.49218 0.5859,-1.14843 0.094,-0.67969 0.094,-3.89063 v -5.8125 q 0,-3.375 -0.3281,-4.125 -0.3047,-0.75 -0.8438,-0.9375 -0.5156,-0.1875 -1.8281,-0.1875 h -0.6328 v -1.07812 q 4.1718,-0.42188 6.4687,-1.24219 z" />
    </g>
    <rect
       style="stroke:#000000;stroke-opacity:1;stroke-width:1;stroke-miterlimit:4;stroke-dasharray:none"
       y="331.7551"
       x="1358.3673"
       height="2.6122448"
       width="52.2449"
       id="rect532" />
    <text
       id="text114-9-5-80"
       y="511.68802"
       x="1575.5431"
       style="font-style:normal;font-variant:normal;font-weight:normal;font-stretch:normal;font-size:48px;line-height:1.25;font-family:Baskerville;-inkscape-font-specification:Baskerville;display:inline;fill:#000000;fill-opacity:1;stroke:none"
       xml:space="preserve"><tspan
         style="font-style:normal;font-variant:normal;font-weight:normal;font-stretch:normal;font-size:48px;font-family:Baskerville;-inkscape-font-specification:Baskerville"
         y="511.68802"
         x="1575.5431"
         id="tspan112-9-0-9"
         sodipodi:role="line">Somaliland</tspan></text>
    <text
       xml:space="preserve"
       style="font-style:normal;font-variant:normal;font-weight:normal;font-stretch:normal;font-size:48px;line-height:1.25;font-family:Baskerville;-inkscape-font-specification:Baskerville;display:inline;fill:#000000;fill-opacity:1;stroke:none"
       x="1435.7537"
       y="1045.0215"
       id="text114-9-5-80-3"><tspan
         id="tspan1393"
         sodipodi:role="line"
         x="1435.7537"
         y="1045.0215"
         style="font-style:normal;font-variant:normal;font-weight:normal;font-stretch:normal;font-size:48px;font-family:Baskerville;-inkscape-font-specification:Baskerville">Somalia</tspan></text>
    <text
       id="text114-9-5-80-3-0"
       y="1395.0621"
       x="845.0824"
       style="font-style:normal;font-variant:normal;font-weight:normal;font-stretch:normal;font-size:48px;line-height:1.25;font-family:Baskerville;-inkscape-font-specification:Baskerville;display:inline;fill:#000000;fill-opacity:1;stroke:none"
       xml:space="preserve"><tspan
         style="font-style:normal;font-variant:normal;font-weight:normal;font-stretch:normal;font-size:48px;font-family:Baskerville;-inkscape-font-specification:Baskerville"
         y="1395.0621"
         x="845.0824"
         sodipodi:role="line"
         id="tspan1393-0">Kenya</tspan></text>
    <text
       xml:space="preserve"
       style="font-style:normal;font-variant:normal;font-weight:normal;font-stretch:normal;font-size:48px;line-height:1.25;font-family:Baskerville;-inkscape-font-specification:Baskerville;display:inline;fill:#000000;fill-opacity:1;stroke:none"
       x="438.37521"
       y="1232.515"
       id="text114-9-5-80-3-0-1"><tspan
         id="tspan1393-0-4"
         sodipodi:role="line"
         x="438.37521"
         y="1232.515"
         style="font-style:normal;font-variant:normal;font-weight:normal;font-stretch:normal;font-size:48px;font-family:Baskerville;-inkscape-font-specification:Baskerville">Uganda</tspan></text>
    <text
       id="text114-9-5-80-3-0-1-9"
       y="1661.1459"
       x="551.50415"
       style="font-style:normal;font-variant:normal;font-weight:normal;font-stretch:normal;font-size:48px;line-height:1.25;font-family:Baskerville;-inkscape-font-specification:Baskerville;display:inline;fill:#000000;fill-opacity:1;stroke:none"
       xml:space="preserve"><tspan
         style="font-style:normal;font-variant:normal;font-weight:normal;font-stretch:normal;font-size:48px;font-family:Baskerville;-inkscape-font-specification:Baskerville"
         y="1661.1459"
         x="551.50415"
         sodipodi:role="line"
         id="tspan1393-0-4-3">Tanzania</tspan></text>
    <text
       xml:space="preserve"
       style="font-style:normal;font-variant:normal;font-weight:normal;font-stretch:normal;font-size:48px;line-height:1.25;font-family:Baskerville;-inkscape-font-specification:Baskerville;display:inline;fill:#000000;fill-opacity:1;stroke:none"
       x="224.21263"
       y="1520.6835"
       id="text114-9-5-80-3-0-1-9-3"><tspan
         id="tspan1393-0-4-3-2"
         sodipodi:role="line"
         x="224.21263"
         y="1520.6835"
         style="font-style:normal;font-variant:normal;font-weight:normal;font-stretch:normal;font-size:48px;font-family:Baskerville;-inkscape-font-specification:Baskerville">Rwanda</tspan></text>
    <text
       id="text114-9-5-80-3-0-1-9-3-2"
       y="1608.5428"
       x="211.95975"
       style="font-style:normal;font-variant:normal;font-weight:normal;font-stretch:normal;font-size:48px;line-height:1.25;font-family:Baskerville;-inkscape-font-specification:Baskerville;display:inline;fill:#000000;fill-opacity:1;stroke:none"
       xml:space="preserve"><tspan
         style="font-style:normal;font-variant:normal;font-weight:normal;font-stretch:normal;font-size:48px;font-family:Baskerville;-inkscape-font-specification:Baskerville"
         y="1608.5428"
         x="211.95975"
         sodipodi:role="line"
         id="tspan1393-0-4-3-2-1">Burundi</tspan></text>
    <text
       transform="translate(-22,-64)"
       id="text114-9-5-80-3-0-1-8"
       y="1196.1661"
       x="162.27966"
       style="font-style:normal;font-variant:normal;font-weight:normal;font-stretch:normal;font-size:48px;line-height:1.25;font-family:Baskerville;-inkscape-font-specification:Baskerville;white-space:pre;inline-size:309.681;display:inline;fill:#000000;fill-opacity:1;stroke:none"
       xml:space="preserve"><tspan
         x="162.27966"
         y="1196.1661"><tspan
           style="font-style:normal;font-variant:normal;font-weight:normal;font-stretch:normal;font-size:48px;font-family:Baskerville;-inkscape-font-specification:Baskerville">Democratic </tspan></tspan><tspan
         x="162.27966"
         y="1256.1661"><tspan
           style="font-style:normal;font-variant:normal;font-weight:normal;font-stretch:normal;font-size:48px;font-family:Baskerville;-inkscape-font-specification:Baskerville">Republic of </tspan></tspan><tspan
         x="162.27966"
         y="1316.1661"><tspan
           style="font-style:normal;font-variant:normal;font-weight:normal;font-stretch:normal;font-size:48px;font-family:Baskerville;-inkscape-font-specification:Baskerville">Congo</tspan></tspan></text>
    <text
       id="text80-5"
       y="1187.3823"
       x="1411.6071"
       style="font-style:normal;font-weight:normal;font-size:32px;line-height:1.25;font-family:sans-serif;fill:#000000;fill-opacity:1;stroke:none"
       xml:space="preserve"><tspan
         style="font-style:normal;font-variant:normal;font-weight:normal;font-stretch:normal;font-size:32px;font-family:Baskerville;-inkscape-font-specification:Baskerville"
         y="1187.3823"
         x="1411.6071"
         id="tspan78-1"
         sodipodi:role="line">Mogadishu</tspan></text>
    <text
       id="text80-9"
       y="950.89252"
       x="454.42343"
       style="font-style:normal;font-weight:normal;font-size:32px;line-height:1.25;font-family:sans-serif;fill:#000000;fill-opacity:1;stroke:none"
       xml:space="preserve"><tspan
         style="font-style:normal;font-variant:normal;font-weight:normal;font-stretch:normal;font-size:32px;font-family:Baskerville;-inkscape-font-specification:Baskerville"
         y="950.89252"
         x="454.42343"
         id="tspan78-4"
         sodipodi:role="line">Juba</tspan></text>
    <text
       xml:space="preserve"
       style="font-style:normal;font-weight:normal;font-size:32px;line-height:1.25;font-family:sans-serif;fill:#000000;fill-opacity:1;stroke:none"
       x="386.73792"
       y="1313.3822"
       id="text80-9-4"><tspan
         sodipodi:role="line"
         id="tspan78-4-9"
         x="386.73792"
         y="1313.3822"
         style="font-style:normal;font-variant:normal;font-weight:normal;font-stretch:normal;font-size:32px;font-family:Baskerville;-inkscape-font-specification:Baskerville">Kampala</tspan></text>
    <text
       xml:space="preserve"
       style="font-style:normal;font-weight:normal;font-size:32px;line-height:1.25;font-family:sans-serif;fill:#000000;fill-opacity:1;stroke:none"
       x="267.26846"
       y="1480.566"
       id="text80-9-7"><tspan
         sodipodi:role="line"
         id="tspan78-4-6"
         x="267.26846"
         y="1480.566"
         style="font-style:normal;font-variant:normal;font-weight:normal;font-stretch:normal;font-size:32px;font-family:Baskerville;-inkscape-font-specification:Baskerville">Kigali</tspan></text>
    <text
       id="text80-9-7-2"
       y="1639.2944"
       x="268.40195"
       style="font-style:normal;font-weight:normal;font-size:32px;line-height:1.25;font-family:sans-serif;fill:#000000;fill-opacity:1;stroke:none"
       xml:space="preserve"><tspan
         style="font-style:normal;font-variant:normal;font-weight:normal;font-stretch:normal;font-size:32px;font-family:Baskerville;-inkscape-font-specification:Baskerville"
         y="1639.2944"
         x="268.40195"
         id="tspan78-4-6-5"
         sodipodi:role="line">Bujumbura</tspan></text>
    <text
       xml:space="preserve"
       style="font-style:normal;font-weight:normal;font-size:32px;line-height:1.25;font-family:sans-serif;fill:#000000;fill-opacity:1;stroke:none"
       x="884.12561"
       y="1249.913"
       id="text80-9-6"><tspan
         sodipodi:role="line"
         id="tspan78-4-66"
         x="884.12561"
         y="1249.913"
         style="font-style:normal;font-variant:normal;font-weight:normal;font-stretch:normal;font-size:32px;font-family:Baskerville;-inkscape-font-specification:Baskerville">Nairobi</tspan></text>
    <text
       xml:space="preserve"
       style="font-style:normal;font-weight:normal;font-size:32px;line-height:1.25;font-family:sans-serif;fill:#000000;fill-opacity:1;stroke:none"
       x="532.92487"
       y="82.193245"
       id="text80-9-1"><tspan
         sodipodi:role="line"
         id="tspan78-4-8"
         x="532.92487"
         y="82.193245"
         style="font-style:normal;font-variant:normal;font-weight:normal;font-stretch:normal;font-size:32px;font-family:Baskerville;-inkscape-font-specification:Baskerville">Khartoum</tspan></text>
    <text
       id="text80-9-1-3"
       y="104.36193"
       x="1019.5069"
       style="font-style:normal;font-weight:normal;font-size:32px;line-height:1.25;font-family:sans-serif;fill:#000000;fill-opacity:1;stroke:none"
       xml:space="preserve"><tspan
         style="font-style:normal;font-variant:normal;font-weight:normal;font-stretch:normal;font-size:32px;font-family:Baskerville;-inkscape-font-specification:Baskerville"
         y="104.36193"
         x="1019.5069"
         id="tspan78-4-8-4"
         sodipodi:role="line">Asmara</tspan></text>
    <text
       xml:space="preserve"
       style="font-style:normal;font-weight:normal;font-size:32px;line-height:1.25;font-family:sans-serif;fill:#000000;fill-opacity:1;stroke:none"
       x="1477.3125"
       y="561.73999"
       id="text80-5-1"><tspan
         sodipodi:role="line"
         id="tspan78-1-8"
         x="1477.3125"
         y="561.73999"
         style="font-style:normal;font-variant:normal;font-weight:normal;font-stretch:normal;font-size:32px;font-family:Baskerville;-inkscape-font-specification:Baskerville">Hargeisa</tspan></text>
    <text
       id="text80-5-1-5"
       y="409.09042"
       x="1402.0537"
       style="font-style:normal;font-weight:normal;font-size:32px;line-height:1.25;font-family:sans-serif;fill:#000000;fill-opacity:1;stroke:none"
       xml:space="preserve"><tspan
         style="font-style:normal;font-variant:normal;font-weight:normal;font-stretch:normal;font-size:32px;font-family:Baskerville;-inkscape-font-specification:Baskerville"
         y="409.09042"
         x="1402.0537"
         id="tspan78-1-8-8"
         sodipodi:role="line">Djibouti</tspan></text>
  </g>
</svg>
